<svg viewBox="0 0 340 241"  xmlns="http://www.w3.org/2000/svg" >
<path fill-rule="evenodd" clip-rule="evenodd"
 d="M339.356 159.325C336.097 76.6911 264.709 6.12128 182.715 0.526439C97.6096 -6.4326 16.3359 56.3501 2.50203 140.789C2.04006 146.053 0.439087 150.877 0.599715 156.183C-0.0640362 166.182 -1.15392 176.903 3.59323 186.191C23.4726 222.247 76.667 231.528 114.109 237.35C141.044 241.264 156.537 241.618 195.408 240.332C241.391 238.81 349.223 223.893 339.368 159.305L339.357 159.325H339.356ZM302.08 166.242C280.686 200.714 211.48 201.647 175.377 198.273C144.149 195.354 112.11 190.785 97.7716 165.972C95.4604 161.016 95.41 154.81 96.0511 149.474C96.9565 126.094 106.975 103.322 122.687 86.0653C141.081 65.2413 168.477 53.1214 196.088 51.8739C242.011 49.8037 286.85 80.9695 299.637 125.383C302.969 136.246 306.926 155.803 302.08 166.24V166.242Z"
 fill="#EA462B">
 </path></svg>

